# xmcd CD database file
#
# Track frame offsets:
#	187
#	34335
#	68235
#	93610
#	126545
#	151120
#
# Disc length: 2454 seconds
#
# Revision: 2
# Processed by: cddbd v1.5PL3 Copyright (c) Steve Scherf et al.
# Submitted via: CDex 1.51
#
DISCID=50099406
DTITLE=IAN GILLAN BAND - Clear Air Turbulance
DYEAR=1977
DGENRE=Hard Rock
TTITLE0=Clear Air Turbulance
TTITLE1=Five Moons
TTITLE2=Money Lender
TTITLE3=Over The Hill
TTITLE4=Goodhand Liza
TTITLE5=Angel Manchenio
EXTD=YEAR: 1977
EXTT0=
EXTT1=
EXTT2=
EXTT3=
EXTT4=
EXTT5=
PLAYORDER=
